# xmcd
#
# Track frame offsets:
#	150
#	19940
#	40030
#	59879
#	75505
#	97269
#	112742
#	134856
#	153296
#	171742
#	187588
#	209961
#	226480
#
# Disc length: 3961 seconds
#
# Revision: 0
# Processed by: cddbd v1.5.2PL0 Copyright (c) Steve Scherf et al.
# Submitted via: audiograbber 1.83.01
#
DISCID=bb0f770d
DTITLE=D Bomb - Jak Narkotyk
DYEAR=2006
DGENRE=Dance
TTITLE0=nie wiem sam
TTITLE1=powiedz co czujesz
TTITLE2=shake your boom boom
TTITLE3=jesli chcesz
TTITLE4=obejmij
TTITLE5=mysle
TTITLE6=przypominasz mi
TTITLE7=jeszcze raz kochanie
TTITLE8=do szalenstwa
TTITLE9=oczy pelne lez
TTITLE10=jak narkotyk
TTITLE11=mysle (summer mix)
TTITLE12=D Bomb-megamix vol 3
EXTD=
EXTT0=
EXTT1=
EXTT2=
EXTT3=
EXTT4=
EXTT5=
EXTT6=
EXTT7=
EXTT8=
EXTT9=
EXTT10=
EXTT11=
EXTT12=
PLAYORDER=
